<?xml version="1.0" standalone="no"?>
<!DOCTYPE svg PUBLIC "-//W3C//DTD SVG 20010904//EN"
 "http://www.w3.org/TR/2001/REC-SVG-20010904/DTD/svg10.dtd">
<svg version="1.0" xmlns="http://www.w3.org/2000/svg"
 width="103.000000pt" height="103.000000pt" viewBox="0 0 103.000000 103.000000"
 preserveAspectRatio="xMidYMid meet">
<metadata>
Created by potrace 1.14, written by Peter Selinger 2001-2017
</metadata>
<g transform="translate(0.000000,103.000000) scale(0.100000,-0.100000)"
fill="#000000" stroke="none">
<path d="M404 830 c-74 -29 -128 -81 -166 -157 -28 -57 -32 -77 -32 -139 1
-184 146 -322 329 -312 123 7 212 69 266 182 72 153 4 344 -149 417 -67 32
-180 36 -248 9z m181 -171 c8 -24 -2 -69 -26 -127 -10 -24 -21 -53 -23 -65 -8
-40 -28 -87 -37 -87 -15 0 -27 34 -18 55 15 39 11 45 -28 39 -38 -5 -93 -53
-93 -80 0 -20 -29 -24 -39 -6 -7 12 -4 24 11 44 11 16 16 28 11 27 -21 -4 -33
2 -33 16 0 8 8 15 18 16 41 2 56 10 86 46 17 20 55 63 84 95 54 58 76 64 87
27z m78 -71 c4 -10 7 -10 15 0 8 12 42 7 42 -6 0 -3 -9 -32 -21 -65 -11 -32
-18 -61 -15 -65 8 -7 35 28 36 46 0 7 4 11 9 8 10 -7 -32 -100 -50 -112 -7 -4
-20 2 -30 14 -17 21 -36 31 -25 13 3 -4 -3 -16 -14 -26 -42 -38 -64 30 -35
110 25 70 42 95 65 95 10 0 21 -6 23 -12z"/>
<path d="M534 627 c-102 -120 -110 -131 -84 -124 14 4 32 7 41 7 15 0 20 9 34
55 2 6 10 27 19 48 19 43 17 46 -10 14z"/>
<path d="M629 533 c-23 -60 -39 -106 -37 -109 2 -1 9 4 16 12 7 8 10 14 7 14
-3 0 5 17 18 38 34 54 39 72 21 72 -8 0 -19 -12 -25 -27z"/>
</g>
</svg>
